<?xml version="1.0" encoding="UTF-8" standalone="no"?>
<!-- Created with Inkscape (http://www.inkscape.org/) -->

<svg
   width="26.458632mm"
   height="26.458328mm"
   viewBox="0 0 26.458632 26.458328"
   version="1.1"
   id="svg1"
   preserveAspectRatio="none"
   xml:space="preserve"
   xmlns="http://www.w3.org/2000/svg"
   xmlns:svg="http://www.w3.org/2000/svg"><defs
     id="defs1" /><g
     id="layer1"
     transform="translate(-92.318398,-122.86536)"
     style="display:none"><path
       id="rect1"
       style="fill:#f9f9f9;stroke-width:0.21995"
       d="m 94.388885,124.04625 c 7.439675,-1.57452 14.879345,-1.57452 22.319025,0 0.71478,0.15127 1.37121,0.87588 1.45781,1.60135 0.82607,6.92033 0.80598,13.88372 -0.006,20.89313 -0.084,0.72578 -0.73737,1.45079 -1.45215,1.60206 -7.43968,1.57452 -14.87935,1.57452 -22.319021,0 -0.71478,-0.15127 -1.375585,-0.87528 -1.465774,-1.6003 -0.84614,-6.80213 -0.771205,-13.75252 0.02124,-20.89327 0.08058,-0.72616 0.729754,-1.4517 1.444532,-1.60297 z" /></g><path
     style="fill:#ffffff;fill-opacity:1;stroke-width:0.175623"
     d="m 3.7213646,26.455301 c 3.5103721,-0.193032 19.2714134,-0.308358 19.2714134,-0.308358 0,0 3.870238,0.709633 3.431124,-14.3398 C 25.984788,-3.2422755 18.636894,0.38332364 18.636894,0.38332364 L 3.5136916,0.87593482 c 0,0 -3.2594648,0.38632628 -3.4859674,10.49333718 -0.1056027,4.712208 0.0955821,7.227575 0.51634454,9.750747 0.48171266,2.888673 1.30357096,5.438317 3.17729586,5.335282 z"
     id="path3" /></svg>
